<?xml version="1.0" standalone="no"?>
<!DOCTYPE svg PUBLIC "-//W3C//DTD SVG 20010904//EN"
 "http://www.w3.org/TR/2001/REC-SVG-20010904/DTD/svg10.dtd">
<svg version="1.0" xmlns="http://www.w3.org/2000/svg"
 width="355.000000pt" height="134.000000pt" viewBox="0 0 355.000000 134.000000"
 preserveAspectRatio="xMidYMid meet">
<metadata>
Created by potrace 1.13, written by Peter Selinger 2001-2015
</metadata>
<g transform="translate(0.000000,134.000000) scale(0.100000,-0.100000)"
fill="#000000" stroke="none">
<path d="M812 1307 c-46 -49 -12 -127 54 -127 39 0 74 36 74 76 0 65 -84 98
-128 51z"/>
<path d="M278 1297 c-100 -38 -166 -96 -215 -190 -25 -46 -28 -63 -28 -147 0
-89 2 -99 34 -158 39 -71 98 -128 169 -163 39 -20 63 -24 142 -24 79 0 103 4
142 24 71 35 130 92 169 163 32 59 34 69 34 158 0 89 -2 99 -34 158 -39 71
-99 129 -169 163 -59 28 -188 36 -244 16z m228 -75 c66 -34 101 -69 133 -134
58 -115 37 -243 -53 -334 -175 -174 -474 -65 -493 181 -11 138 62 252 194 301
54 20 167 13 219 -14z"/>
</g>
</svg>
